<svg width="250" height="250" viewBox="0 0 250 250" fill="none" xmlns="http://www.w3.org/2000/svg">
<path d="M123.885 51.315C87.16 51.315 89.45 67.3 89.45 67.3L89.49 83.865H124.535V88.835H75.575C75.575 88.835 52.075 86.16 52.075 123.355C52.075 160.555 72.59 159.235 72.59 159.235H84.83V141.975C84.83 141.975 84.17 121.385 105.01 121.385H139.765C139.765 121.385 159.295 121.7 159.295 102.435V70.585C159.295 70.585 162.26 51.32 123.885 51.32V51.315ZM104.56 62.45C105.81 62.4475 107.032 62.8183 108.07 63.5149C109.108 64.2115 109.914 65.2022 110.385 66.36C111.023 67.9095 111.022 69.6483 110.383 71.1974C109.745 72.7465 108.52 73.9803 106.975 74.63C105.822 75.1104 104.552 75.2358 103.327 74.9899C102.102 74.7441 100.978 74.1382 100.1 73.25C99.215 72.3642 98.6129 71.2356 98.3699 70.0072C98.1269 68.7789 98.254 67.5061 98.735 66.35C99.2132 65.198 100.021 64.2131 101.058 63.5192C102.094 62.8253 103.313 62.4533 104.56 62.45Z" fill="url(#paint0_linear)"/>
<path d="M124.925 195.77C161.645 195.77 159.355 179.785 159.355 179.785L159.315 163.22H124.27V158.25H173.23C173.23 158.25 196.73 160.925 196.73 123.725C196.73 86.53 176.22 87.85 176.22 87.85H163.98V105.11C163.98 105.11 164.64 125.7 143.795 125.7H109.045C109.045 125.7 89.515 125.385 89.515 144.65V176.5C89.515 176.5 86.55 195.77 124.925 195.77V195.77ZM144.25 184.635C143 184.638 141.777 184.268 140.739 183.573C139.7 182.877 138.893 181.887 138.42 180.73C138.025 179.77 137.872 178.727 137.975 177.694C138.078 176.661 138.432 175.669 139.008 174.805C139.584 173.94 140.363 173.231 141.277 172.739C142.191 172.246 143.212 171.986 144.25 171.98C145.499 171.977 146.72 172.347 147.757 173.042C148.795 173.736 149.602 174.725 150.075 175.88C150.394 176.649 150.558 177.473 150.558 178.305C150.558 179.137 150.394 179.961 150.075 180.73C149.597 181.882 148.789 182.867 147.752 183.561C146.716 184.255 145.497 184.627 144.25 184.63V184.635Z" fill="url(#paint1_linear)"/>
<defs>
<linearGradient id="paint0_linear" x1="109.98" y1="110.055" x2="187.245" y2="182.815" gradientUnits="userSpaceOnUse">
<stop stop-color="#5B5B5B"/>
<stop offset="1" stop-color="#CCC9C2"/>
</linearGradient>
<linearGradient id="paint1_linear" x1="109.98" y1="110.055" x2="187.245" y2="182.815" gradientUnits="userSpaceOnUse">
<stop stop-color="#5B5B5B"/>
<stop offset="1" stop-color="#CCC9C2"/>
</linearGradient>
</defs>
</svg>
