<?xml version="1.0" encoding="utf-8"?>
<!-- Generator: Adobe Illustrator 20.1.0, SVG Export Plug-In . SVG Version: 6.00 Build 0)  -->
<svg version="1.1" id="Layer_1" xmlns="http://www.w3.org/2000/svg" xmlns:xlink="http://www.w3.org/1999/xlink" x="0px" y="0px"
	 viewBox="0 0 483 207.4" style="enable-background:new 0 0 483 207.4;" xml:space="preserve">
<style type="text/css">
	.st0{fill:#007BFF;}
	.st1{fill:#FFFFFF;}
	.st2{fill:#274867;}
	.st3{fill:#6FB2EF;}
</style>
<path class="st0" d="M438.3,203.2H214.7c-1.8,0-3.3-1.5-3.3-3.3V9.5c0-1.8,1.5-3.3,3.3-3.3h223.6c1.8,0,3.3,1.5,3.3,3.3v190.4
	C441.5,201.7,440.1,203.2,438.3,203.2z"/>
<rect x="217.6" y="16" class="st1" width="217.8" height="27.1"/>
<rect x="217.6" y="45.5" class="st1" width="217.8" height="27.1"/>
<rect x="217.6" y="75.1" class="st1" width="217.8" height="27.1"/>
<rect x="217.6" y="105" class="st1" width="217.8" height="27.1"/>
<rect x="217.6" y="134.5" class="st1" width="217.8" height="27.1"/>
<rect x="217.6" y="164.1" class="st1" width="217.8" height="27.1"/>
<g>
	
		<rect x="392.9" y="93.6" transform="matrix(6.123234e-17 -1 1 6.123234e-17 293.0675 495.4877)" class="st0" width="2.8" height="15.2"/>
	
		<rect x="394.3" y="91.8" transform="matrix(6.123234e-17 -1 1 6.123234e-17 296.9921 494.1566)" class="st2" width="2.5" height="13.6"/>
	
		<rect x="392.2" y="89.3" transform="matrix(6.123234e-17 -1 1 6.123234e-17 297.3719 489.5888)" class="st3" width="2.5" height="13.6"/>
	<rect x="412.1" y="85.6" class="st0" width="3.1" height="17"/>
	<rect x="415.9" y="88.5" class="st3" width="2.4" height="14.1"/>
	<rect x="405" y="85.6" class="st0" width="3.1" height="17"/>
	<rect x="408.8" y="88.5" class="st3" width="2.4" height="14.1"/>
	<rect x="354.5" y="89.1" class="st0" width="5.4" height="13.5"/>
	<rect x="352.1" y="90.4" class="st2" width="1.5" height="12.2"/>
	<rect x="349.2" y="88.4" class="st3" width="2.4" height="14.2"/>
	<rect x="381.7" y="88.4" class="st3" width="2.4" height="14.2"/>
	<rect x="364.3" y="90.4" class="st2" width="4.9" height="12.2"/>
	<rect x="369.7" y="85.6" class="st0" width="3.1" height="17"/>
	<rect x="373.5" y="88.5" class="st3" width="2.4" height="14.1"/>
	<rect x="360.5" y="87.5" class="st3" width="2.8" height="15.1"/>
	<rect x="376.5" y="89.9" class="st2" width="4.5" height="12.7"/>
	<rect x="350.3" y="31.3" class="st2" width="1.5" height="12.2"/>
	<rect x="347.4" y="29.4" class="st3" width="2.4" height="14.2"/>
	<rect x="388.2" y="30" class="st0" width="5.4" height="13.5"/>
	<rect x="385.8" y="31.3" class="st2" width="1.5" height="12.2"/>
	<rect x="382.9" y="29.4" class="st3" width="2.4" height="14.2"/>
	<rect x="370.4" y="26.6" class="st0" width="3.1" height="17"/>
	
		<rect x="358.8" y="34.5" transform="matrix(6.123234e-17 -1 1 6.123234e-17 318.0741 402.3549)" class="st0" width="2.8" height="15.2"/>
	
		<rect x="360.3" y="32.7" transform="matrix(6.123234e-17 -1 1 6.123234e-17 321.9987 401.0238)" class="st2" width="2.5" height="13.6"/>
	
		<rect x="358.2" y="30.2" transform="matrix(6.123234e-17 -1 1 6.123234e-17 322.3786 396.456)" class="st3" width="2.5" height="13.6"/>
	<rect x="374.2" y="29.4" class="st3" width="2.4" height="14.1"/>
	<rect x="377.7" y="30.8" class="st2" width="4.5" height="12.7"/>
	<rect x="422.7" y="26.6" class="st0" width="3.1" height="17"/>
	<rect x="426.5" y="29.4" class="st3" width="2.4" height="14.1"/>
	<rect x="429.9" y="30.8" class="st2" width="4.5" height="12.7"/>
	<rect x="400.3" y="30" class="st0" width="5.4" height="13.5"/>
	<rect x="397.9" y="31.3" class="st2" width="1.5" height="12.2"/>
	<rect x="395" y="29.4" class="st3" width="2.4" height="14.2"/>
	<rect x="410.1" y="31.3" class="st2" width="4.9" height="12.2"/>
	<rect x="415.5" y="26.6" class="st0" width="3.1" height="17"/>
	<rect x="419.4" y="29.4" class="st3" width="2.4" height="14.1"/>
	<rect x="406.3" y="28.4" class="st3" width="2.8" height="15.1"/>
	<rect x="261.4" y="60.9" class="st2" width="1.5" height="12.2"/>
	<rect x="258.5" y="58.9" class="st3" width="2.4" height="14.2"/>
	<rect x="299.4" y="59.5" class="st0" width="5.4" height="13.5"/>
	<rect x="296.9" y="60.9" class="st2" width="1.5" height="12.2"/>
	<rect x="294" y="58.9" class="st3" width="2.4" height="14.2"/>
	<rect x="281.6" y="56.1" class="st0" width="3.1" height="17"/>
	
		<rect x="270" y="64.1" transform="matrix(6.123234e-17 -1 1 6.123234e-17 199.6874 343.038)" class="st0" width="2.8" height="15.2"/>
	
		<rect x="271.4" y="62.3" transform="matrix(6.123234e-17 -1 1 6.123234e-17 203.612 341.7068)" class="st2" width="2.5" height="13.6"/>
	
		<rect x="269.3" y="59.8" transform="matrix(6.123234e-17 -1 1 6.123234e-17 203.9918 337.139)" class="st3" width="2.5" height="13.6"/>
	<rect x="285.4" y="59" class="st3" width="2.4" height="14.1"/>
	<rect x="288.8" y="60.4" class="st2" width="4.5" height="12.7"/>
	<rect x="333.8" y="56.1" class="st0" width="3.1" height="17"/>
	<rect x="337.6" y="59" class="st3" width="2.4" height="14.1"/>
	<rect x="341.1" y="60.4" class="st2" width="4.5" height="12.7"/>
	<rect x="311.5" y="59.5" class="st0" width="5.4" height="13.5"/>
	<rect x="309" y="60.9" class="st2" width="1.5" height="12.2"/>
	<rect x="306.1" y="58.9" class="st3" width="2.4" height="14.2"/>
	<rect x="321.3" y="60.9" class="st2" width="4.9" height="12.2"/>
	<rect x="326.7" y="56.1" class="st0" width="3.1" height="17"/>
	<rect x="330.5" y="59" class="st3" width="2.4" height="14.1"/>
	<rect x="317.5" y="58" class="st3" width="2.8" height="15.1"/>
	<rect x="411" y="59.5" class="st0" width="5.4" height="13.5"/>
	<rect x="408.5" y="60.9" class="st2" width="1.5" height="12.2"/>
	<rect x="405.6" y="58.9" class="st3" width="2.4" height="14.2"/>
	<rect x="423.1" y="59.5" class="st0" width="5.4" height="13.5"/>
	<rect x="420.6" y="60.9" class="st2" width="1.5" height="12.2"/>
	<rect x="417.7" y="58.9" class="st3" width="2.4" height="14.2"/>
	<rect x="429.1" y="58" class="st3" width="2.8" height="15.1"/>
	<rect x="354.5" y="59.5" class="st0" width="5.4" height="13.5"/>
	<rect x="352.1" y="60.9" class="st2" width="1.5" height="12.2"/>
	<rect x="349.2" y="58.9" class="st3" width="2.4" height="14.2"/>
	<rect x="387.5" y="59.5" class="st0" width="5.4" height="13.5"/>
	<rect x="385.1" y="60.9" class="st2" width="1.5" height="12.2"/>
	<rect x="382.2" y="58.9" class="st3" width="2.4" height="14.2"/>
	<rect x="364.3" y="60.9" class="st2" width="4.9" height="12.2"/>
	<rect x="369.7" y="56.1" class="st0" width="3.1" height="17"/>
	<rect x="373.5" y="59" class="st3" width="2.4" height="14.1"/>
	<rect x="360.5" y="58" class="st3" width="2.8" height="15.1"/>
	<rect x="377" y="60.4" class="st2" width="4.5" height="12.7"/>
	
		<rect x="395.1" y="57.7" transform="matrix(0.9418 -0.3361 0.3361 0.9418 1.1807 137.347)" class="st2" width="4.5" height="15.1"/>
	<rect x="399.9" y="58" transform="matrix(0.9418 -0.3361 0.3361 0.9418 1.2828 138.5879)" class="st3" width="2.2" height="15.1"/>
	
		<rect x="392.9" y="182.6" transform="matrix(6.123234e-17 -1 1 6.123234e-17 204.0675 584.4877)" class="st0" width="2.8" height="15.2"/>
	
		<rect x="394.3" y="180.8" transform="matrix(6.123234e-17 -1 1 6.123234e-17 207.9921 583.1566)" class="st2" width="2.5" height="13.6"/>
	
		<rect x="392.2" y="178.3" transform="matrix(6.123234e-17 -1 1 6.123234e-17 208.3719 578.5888)" class="st3" width="2.5" height="13.6"/>
	<rect x="412.1" y="174.6" class="st0" width="3.1" height="17"/>
	<rect x="415.9" y="177.5" class="st3" width="2.4" height="14.1"/>
	<rect x="405" y="174.6" class="st0" width="3.1" height="17"/>
	<rect x="408.8" y="177.5" class="st3" width="2.4" height="14.1"/>
	<rect x="354.5" y="178.1" class="st0" width="5.4" height="13.5"/>
	<rect x="352.1" y="179.4" class="st2" width="1.5" height="12.2"/>
	<rect x="349.2" y="177.4" class="st3" width="2.4" height="14.2"/>
	<rect x="381.7" y="177.4" class="st3" width="2.4" height="14.2"/>
	<rect x="364.3" y="179.4" class="st2" width="4.9" height="12.2"/>
	<rect x="369.7" y="174.6" class="st0" width="3.1" height="17"/>
	<rect x="373.5" y="177.5" class="st3" width="2.4" height="14.1"/>
	<rect x="360.5" y="176.5" class="st3" width="2.8" height="15.1"/>
	<rect x="376.5" y="178.9" class="st2" width="4.5" height="12.7"/>
	<g>
		
			<rect x="317.3" y="123.5" transform="matrix(6.123234e-17 -1 1 6.123234e-17 187.5825 449.8633)" class="st0" width="2.8" height="15.2"/>
		
			<rect x="318.8" y="121.7" transform="matrix(6.123234e-17 -1 1 6.123234e-17 191.5071 448.5321)" class="st2" width="2.5" height="13.6"/>
		
			<rect x="316.7" y="119.2" transform="matrix(6.123234e-17 -1 1 6.123234e-17 191.8869 443.9644)" class="st3" width="2.5" height="13.6"/>
		<rect x="336.6" y="115.6" class="st0" width="3.1" height="17"/>
		<rect x="340.4" y="118.4" class="st3" width="2.4" height="14.1"/>
		<rect x="329.4" y="115.6" class="st0" width="3.1" height="17"/>
		<rect x="333.2" y="118.4" class="st3" width="2.4" height="14.1"/>
		<rect x="278.9" y="119" class="st0" width="5.4" height="13.5"/>
		<rect x="276.5" y="120.3" class="st2" width="1.5" height="12.2"/>
		<rect x="273.6" y="118.4" class="st3" width="2.4" height="14.2"/>
		<rect x="306.1" y="118.4" class="st3" width="2.4" height="14.2"/>
		<rect x="288.7" y="120.3" class="st2" width="4.9" height="12.2"/>
		<rect x="294.2" y="115.6" class="st0" width="3.1" height="17"/>
		<rect x="298" y="118.4" class="st3" width="2.4" height="14.1"/>
		<rect x="285" y="117.4" class="st3" width="2.8" height="15.1"/>
		<rect x="300.9" y="119.8" class="st2" width="4.5" height="12.7"/>
	</g>
	<rect x="350.3" y="120.3" class="st2" width="1.5" height="12.2"/>
	<rect x="347.4" y="118.4" class="st3" width="2.4" height="14.2"/>
	<rect x="388.2" y="119" class="st0" width="5.4" height="13.5"/>
	<rect x="385.8" y="120.3" class="st2" width="1.5" height="12.2"/>
	<rect x="382.9" y="118.4" class="st3" width="2.4" height="14.2"/>
	<rect x="370.4" y="115.6" class="st0" width="3.1" height="17"/>
	
		<rect x="358.8" y="123.5" transform="matrix(6.123234e-17 -1 1 6.123234e-17 229.0741 491.3549)" class="st0" width="2.8" height="15.2"/>
	
		<rect x="360.3" y="121.7" transform="matrix(6.123234e-17 -1 1 6.123234e-17 232.9987 490.0238)" class="st2" width="2.5" height="13.6"/>
	
		<rect x="358.2" y="119.2" transform="matrix(6.123234e-17 -1 1 6.123234e-17 233.3786 485.456)" class="st3" width="2.5" height="13.6"/>
	<rect x="374.2" y="118.4" class="st3" width="2.4" height="14.1"/>
	<rect x="377.7" y="119.8" class="st2" width="4.5" height="12.7"/>
	<rect x="422.7" y="115.6" class="st0" width="3.1" height="17"/>
	<rect x="426.5" y="118.4" class="st3" width="2.4" height="14.1"/>
	<rect x="429.9" y="119.8" class="st2" width="4.5" height="12.7"/>
	<rect x="400.3" y="119" class="st0" width="5.4" height="13.5"/>
	<rect x="397.9" y="120.3" class="st2" width="1.5" height="12.2"/>
	<rect x="395" y="118.4" class="st3" width="2.4" height="14.2"/>
	<rect x="410.1" y="120.3" class="st2" width="4.9" height="12.2"/>
	<rect x="415.5" y="115.6" class="st0" width="3.1" height="17"/>
	<rect x="419.4" y="118.4" class="st3" width="2.4" height="14.1"/>
	<rect x="406.3" y="117.4" class="st3" width="2.8" height="15.1"/>
	<rect x="261.1" y="31.3" class="st2" width="1.5" height="12.2"/>
	<rect x="258.2" y="29.4" class="st3" width="2.4" height="14.2"/>
	<rect x="299" y="30" class="st0" width="5.4" height="13.5"/>
	<rect x="296.6" y="31.3" class="st2" width="1.5" height="12.2"/>
	<rect x="293.7" y="29.4" class="st3" width="2.4" height="14.2"/>
	<rect x="281.2" y="26.6" class="st0" width="3.1" height="17"/>
	
		<rect x="269.6" y="34.5" transform="matrix(6.123234e-17 -1 1 6.123234e-17 228.8909 313.1717)" class="st0" width="2.8" height="15.2"/>
	
		<rect x="271.1" y="32.7" transform="matrix(6.123234e-17 -1 1 6.123234e-17 232.8155 311.8406)" class="st2" width="2.5" height="13.6"/>
	
		<rect x="269" y="30.2" transform="matrix(6.123234e-17 -1 1 6.123234e-17 233.1954 307.2728)" class="st3" width="2.5" height="13.6"/>
	<rect x="285.1" y="29.4" class="st3" width="2.4" height="14.1"/>
	<rect x="288.5" y="30.8" class="st2" width="4.5" height="12.7"/>
	<rect x="333.5" y="26.6" class="st0" width="3.1" height="17"/>
	<rect x="337.3" y="29.4" class="st3" width="2.4" height="14.1"/>
	<rect x="340.8" y="30.8" class="st3" width="4.5" height="12.7"/>
	<rect x="311.1" y="30" class="st0" width="5.4" height="13.5"/>
	<rect x="308.7" y="31.3" class="st2" width="1.5" height="12.2"/>
	<rect x="305.8" y="29.4" class="st3" width="2.4" height="14.2"/>
	<rect x="320.9" y="31.3" class="st2" width="4.9" height="12.2"/>
	<rect x="326.3" y="26.6" class="st0" width="3.1" height="17"/>
	<rect x="330.2" y="29.4" class="st3" width="2.4" height="14.1"/>
	<rect x="317.2" y="28.4" class="st3" width="2.8" height="15.1"/>
	<rect x="243.7" y="56.1" class="st0" width="3.1" height="17"/>
	<rect x="247.5" y="59" class="st3" width="2.4" height="14.1"/>
	<rect x="250.9" y="60.4" class="st2" width="4.5" height="12.7"/>
	<rect x="221.3" y="59.5" class="st0" width="5.4" height="13.5"/>
	<rect x="231.1" y="60.9" class="st2" width="4.9" height="12.2"/>
	<rect x="236.5" y="56.1" class="st0" width="3.1" height="17"/>
	<rect x="240.4" y="59" class="st3" width="2.4" height="14.1"/>
	<rect x="227.3" y="58" class="st3" width="2.8" height="15.1"/>
	<rect x="411" y="148.5" class="st0" width="5.4" height="13.5"/>
	<rect x="408.5" y="149.9" class="st2" width="1.5" height="12.2"/>
	<rect x="405.6" y="147.9" class="st3" width="2.4" height="14.2"/>
	<rect x="423.1" y="148.5" class="st0" width="5.4" height="13.5"/>
	<rect x="420.6" y="149.9" class="st2" width="1.5" height="12.2"/>
	<rect x="417.7" y="147.9" class="st3" width="2.4" height="14.2"/>
	<rect x="429.1" y="147" class="st3" width="2.8" height="15.1"/>
	<rect x="354.5" y="148.5" class="st0" width="5.4" height="13.5"/>
	<rect x="352.1" y="149.9" class="st2" width="1.5" height="12.2"/>
	<rect x="349.2" y="147.9" class="st3" width="2.4" height="14.2"/>
	<rect x="387.5" y="148.5" class="st0" width="5.4" height="13.5"/>
	<rect x="385.1" y="149.9" class="st2" width="1.5" height="12.2"/>
	<rect x="382.2" y="147.9" class="st3" width="2.4" height="14.2"/>
	<rect x="364.3" y="149.9" class="st2" width="4.9" height="12.2"/>
	<rect x="369.7" y="145.1" class="st0" width="3.1" height="17"/>
	<rect x="373.5" y="148" class="st3" width="2.4" height="14.1"/>
	<rect x="360.5" y="147" class="st3" width="2.8" height="15.1"/>
	<rect x="377" y="149.4" class="st2" width="4.5" height="12.7"/>
	
		<rect x="395.1" y="146.7" transform="matrix(0.9418 -0.3361 0.3361 0.9418 -28.7332 142.5248)" class="st2" width="4.5" height="15.1"/>
	
		<rect x="399.9" y="147" transform="matrix(0.9418 -0.3361 0.3361 0.9418 -28.6282 143.7647)" class="st3" width="2.2" height="15.1"/>
	<rect x="326.2" y="178" class="st0" width="5.4" height="13.5"/>
	<rect x="323.8" y="179.4" class="st2" width="1.5" height="12.2"/>
	<rect x="320.9" y="177.4" class="st3" width="2.4" height="14.2"/>
	<rect x="338.3" y="178" class="st0" width="5.4" height="13.5"/>
	<rect x="335.9" y="179.4" class="st2" width="1.5" height="12.2"/>
	<rect x="333" y="177.4" class="st3" width="2.4" height="14.2"/>
	<rect x="344.4" y="176.5" class="st3" width="2.8" height="15.1"/>
	<rect x="269.8" y="178" class="st0" width="5.4" height="13.5"/>
	<rect x="267.3" y="179.4" class="st2" width="1.5" height="12.2"/>
	<rect x="264.4" y="177.4" class="st3" width="2.4" height="14.2"/>
	<rect x="302.8" y="178" class="st0" width="5.4" height="13.5"/>
	<rect x="300.3" y="179.4" class="st3" width="1.5" height="12.2"/>
	<rect x="297.4" y="177.4" class="st3" width="2.4" height="14.2"/>
	<rect x="279.5" y="179.4" class="st2" width="4.9" height="12.2"/>
	<rect x="285" y="174.6" class="st0" width="3.1" height="17"/>
	<rect x="288.8" y="177.5" class="st3" width="2.4" height="14.1"/>
	<rect x="275.8" y="176.5" class="st3" width="2.8" height="15.1"/>
	<rect x="292.2" y="178.9" class="st2" width="4.5" height="12.7"/>
	
		<rect x="310.4" y="176.2" transform="matrix(0.9418 -0.3361 0.3361 0.9418 -43.582 115.7569)" class="st2" width="4.5" height="15.1"/>
	
		<rect x="315.1" y="176.6" transform="matrix(0.9418 -0.3361 0.3361 0.9418 -43.4752 116.9992)" class="st3" width="2.2" height="15.1"/>
	<rect x="325.2" y="148.5" class="st0" width="5.4" height="13.5"/>
	<rect x="322.7" y="149.8" class="st2" width="1.5" height="12.2"/>
	<rect x="319.8" y="147.9" class="st3" width="2.4" height="14.2"/>
	<rect x="337.3" y="148.5" class="st0" width="5.4" height="13.5"/>
	<rect x="334.9" y="149.8" class="st2" width="1.5" height="12.2"/>
	<rect x="332" y="147.9" class="st3" width="2.4" height="14.2"/>
	<rect x="343.3" y="147" class="st3" width="2.8" height="15.1"/>
	<rect x="268.7" y="148.5" class="st0" width="5.4" height="13.5"/>
	<rect x="266.3" y="149.8" class="st2" width="1.5" height="12.2"/>
	<rect x="263.4" y="147.9" class="st3" width="2.4" height="14.2"/>
	<rect x="301.7" y="148.5" class="st0" width="5.4" height="13.5"/>
	<rect x="299.3" y="149.8" class="st2" width="1.5" height="12.2"/>
	<rect x="296.4" y="147.9" class="st3" width="2.4" height="14.2"/>
	<rect x="278.5" y="149.8" class="st2" width="4.9" height="12.2"/>
	<rect x="283.9" y="145.1" class="st0" width="3.1" height="17"/>
	<rect x="287.7" y="148" class="st3" width="2.4" height="14.1"/>
	<rect x="274.7" y="147" class="st3" width="2.8" height="15.1"/>
	<rect x="291.2" y="149.3" class="st2" width="4.5" height="12.7"/>
	
		<rect x="309.3" y="146.7" transform="matrix(0.9418 -0.3361 0.3361 0.9418 -33.7157 113.6884)" class="st2" width="4.5" height="15.1"/>
	
		<rect x="314.1" y="147" transform="matrix(0.9418 -0.3361 0.3361 0.9418 -33.6097 114.931)" class="st3" width="2.2" height="15.1"/>
	<rect x="322.5" y="89" class="st2" width="5.4" height="13.5"/>
	<rect x="320.1" y="90.4" class="st0" width="1.5" height="12.2"/>
	<rect x="317.2" y="88.4" class="st3" width="2.4" height="14.2"/>
	<rect x="334.6" y="89" class="st0" width="5.4" height="13.5"/>
	<rect x="332.2" y="90.4" class="st2" width="1.5" height="12.2"/>
	<rect x="329.3" y="88.4" class="st3" width="2.4" height="14.2"/>
	<rect x="340.6" y="87.5" class="st3" width="2.8" height="15.1"/>
	<rect x="266" y="89" class="st0" width="5.4" height="13.5"/>
	<rect x="263.6" y="90.4" class="st2" width="1.5" height="12.2"/>
	<rect x="260.7" y="88.4" class="st3" width="2.4" height="14.2"/>
	<rect x="299" y="89" class="st0" width="5.4" height="13.5"/>
	<rect x="296.6" y="90.4" class="st2" width="1.5" height="12.2"/>
	<rect x="293.7" y="88.4" class="st3" width="2.4" height="14.2"/>
	<rect x="275.8" y="90.4" class="st2" width="4.9" height="12.2"/>
	<rect x="281.2" y="85.6" class="st0" width="3.1" height="17"/>
	<rect x="285" y="88.5" class="st3" width="2.4" height="14.1"/>
	<rect x="272" y="87.5" class="st3" width="2.8" height="15.1"/>
	<rect x="288.5" y="89.9" class="st2" width="4.5" height="12.7"/>
	
		<rect x="306.6" y="87.2" transform="matrix(0.9418 -0.3361 0.3361 0.9418 -13.8857 109.3225)" class="st2" width="4.5" height="15.1"/>
	
		<rect x="311.4" y="87.6" transform="matrix(0.9418 -0.3361 0.3361 0.9418 -13.7816 110.5659)" class="st3" width="2.2" height="15.1"/>
</g>
<g>
	<path class="st2" d="M454.8,31.4h-4.6l-1,3.2h-1.9l3.7-11.1h3l3.7,11.1h-1.9L454.8,31.4z M450.7,29.7h3.5l-1.4-4.4h-0.7L450.7,29.7
		z"/>
	<path class="st2" d="M458.8,31v-1.5h4.5V31H458.8z"/>
	<path class="st2" d="M474.6,31.2c-0.4,2.1-2,3.6-4.5,3.6c-3.4,0-5.2-2.4-5.2-5.8s1.9-5.8,5.3-5.8c2.4,0,4,1.3,4.4,3.3h-2
		c-0.4-1.1-1.1-1.6-2.4-1.6c-2.3,0-3.4,1.9-3.4,4.1c0,2.2,1,4.1,3.3,4.1c1.4,0,2.3-0.7,2.6-1.9H474.6z"/>
</g>
<g>
	<path class="st2" d="M452.8,53.1c3.4,0,5.2,2.2,5.2,5.6c0,3.3-1.7,5.6-5.2,5.6h-4.4V53.1H452.8z M452.6,62.5c2.5,0,3.4-1.7,3.4-3.9
		c0-2.1-0.9-3.9-3.4-3.9h-2.4v7.7H452.6z"/>
	<path class="st2" d="M459.5,60.6v-1.5h4.5v1.5H459.5z"/>
	<path class="st2" d="M475.6,58.2v1.2c0,2.6-1.3,5-4.8,5c-3.4,0-5.3-2.5-5.3-5.8c0-3.3,1.9-5.8,5.3-5.8c2.5,0,4,1.3,4.4,3.2h-2
		c-0.3-1-1.1-1.5-2.5-1.5c-2.3,0-3.4,1.8-3.4,4.1c0,2.2,1.1,4.1,3.4,4.1c1.9,0,2.8-1.2,2.9-3h-3v-1.6H475.6z"/>
</g>
<g>
	<path class="st2" d="M457.7,82.1v11.1h-1.9v-4.9h-5.6v4.9h-1.9V82.1h1.9v4.5h5.6v-4.5H457.7z"/>
	<path class="st2" d="M459.8,89.6v-1.5h4.5v1.5H459.8z"/>
	<path class="st2" d="M466.4,82.1h1.9v5l5.1-5h2.2l-3.4,3.5l3.8,7.7h-2l-3.1-6h-0.4l-2.4,2.3v3.7h-1.9V82.1z"/>
</g>
<g>
	<path class="st2" d="M456.3,124v1.8h-7.9v-11.1h1.9v9.4H456.3z"/>
	<path class="st2" d="M457.3,122.1v-1.5h4.5v1.5H457.3z"/>
	<path class="st2" d="M474,120.1c0,3.2-1.9,5.8-5.3,5.8c-3.5,0-5.3-2.5-5.3-5.8c0-3.2,1.9-5.8,5.3-5.8
		C472.1,114.4,474,116.9,474,120.1z M472.1,120.1c0-2.2-1-4.1-3.4-4.1c-2.4,0-3.4,1.9-3.4,4.1c0,2.2,1,4.1,3.4,4.1
		C471,124.2,472.1,122.3,472.1,120.1z"/>
</g>
<g>
	<path class="st2" d="M453.3,143.1c2.5,0,3.9,1.3,3.9,3.4c0,2.2-1.4,3.5-3.9,3.5h-3v4.2h-1.9v-11.1H453.3z M453,148.3
		c1.7,0,2.3-0.7,2.3-1.8c0-1.1-0.6-1.8-2.3-1.8h-2.7v3.6H453z"/>
	<path class="st2" d="M458.7,150.6v-1.5h4.5v1.5H458.7z"/>
	<path class="st2" d="M471.5,146c-0.2-1-1-1.5-2.3-1.5c-1.2,0-2.1,0.5-2.1,1.5c0,0.9,0.8,1.2,1.6,1.4c0.3,0.1,1.7,0.3,2.1,0.4
		c1.7,0.4,2.9,1.3,2.9,3.2c0,1.8-1.4,3.4-4.4,3.4c-2.7,0-4.4-1.4-4.6-3.5h1.9c0.2,1.4,1.4,1.8,2.8,1.8c1.4,0,2.4-0.6,2.4-1.7
		c0-1-0.7-1.5-1.7-1.7l-2.2-0.4c-1.7-0.3-2.8-1.3-2.8-2.9c0-1.8,1.4-3.2,4.1-3.2c2.4,0,4,1.2,4.2,3.1H471.5z"/>
</g>
<g>
	<path class="st2" d="M456.3,174.7h-3.6v9.5h-1.9v-9.5h-3.6v-1.7h9V174.7z"/>
	<path class="st2" d="M456.4,180.6v-1.5h4.5v1.5H456.4z"/>
	<path class="st2" d="M470.7,175.2l-6.2,7v0.4h6.4v1.7h-8.8v-2.1l6.2-7v-0.4h-5.8v-1.7h8.1V175.2z"/>
</g>
<g>
	<path class="st2" d="M43.4,160.3c0,2.8,1.2,4.2,3.4,4.3c2.2,0,3.4-1.4,3.4-4.2c0-9.3,0-18.5,0-27.8c0-4.6-2.7-7.2-7.3-7.2
		c-7,0-13.9,0-20.9,0c-5,0-7.6,2.6-7.7,7.6c0,7,0,13.9,0,20.9c0,2.4-0.1,4.9,0,7.3c0.1,2,1.5,3.3,3.4,3.3c1.9,0,3.2-1.3,3.4-3.3
		c0.1-0.6,0-1.2,0-1.8c0-6.3,0-12.5,0-18.8c0-0.5,0-1.7,0.8-1.7c0.9,0,0.9,1.1,0.9,1.7c0,0.4,0,0.9,0,1.4c0,18.6,0,37.2,0,55.8
		c0,3.3,1.6,4.8,4.2,4.9c2.8,0.1,4.3-1.5,4.3-4.9c0-5.4,0-10.7,0-16.1c0-5.1,0-11.1,0.1-16.3c0-0.6,0.2-1,0.8-1.1
		c0.8,0,0.8,0.8,0.8,1c0,0.9,0,1.2,0,2.1c0,10.2,0,20.5,0,30.7c0,1.9,0.6,3.7,2.4,4.2c1.4,0.4,3.4,0.3,4.4-0.5
		c1-0.8,1.7-2.7,1.7-4.2c0.1-18.8,0.1-37.6,0.1-56.4c0-0.3,0-0.5,0-0.9c0-0.5-0.1-1.4,0.8-1.4c0.8,0,0.8,0.8,0.8,1.3
		c0,1,0,1.7,0,2.5C43.4,148.6,43.4,154.4,43.4,160.3z"/>
	<path class="st2" d="M39.2,115.6c0-3.8-3-6.9-6.8-6.9c-3.8,0-6.9,3.1-6.9,6.8c0,3.7,3,6.7,6.7,6.7
		C36.1,122.4,39.1,119.5,39.2,115.6z"/>
</g>
<g>
	<path class="st2" d="M182.1,160.3c0,2.8,1.2,4.2,3.4,4.3c2.2,0,3.4-1.4,3.4-4.2c0-9.3,0-18.5,0-27.8c0-4.6-2.7-7.2-7.3-7.2
		c-7,0-13.9,0-20.9,0c-5,0-7.6,2.6-7.7,7.6c0,7,0,13.9,0,20.9c0,2.4-0.1,4.9,0,7.3c0.1,2,1.5,3.3,3.4,3.3c1.9,0,3.2-1.3,3.4-3.3
		c0.1-0.6,0-1.2,0-1.8c0-6.3,0-12.5,0-18.8c0-0.5,0-1.7,0.8-1.7c0.9,0,0.9,1.1,0.9,1.7c0,0.4,0,0.9,0,1.4c0,18.6,0,37.2,0,55.8
		c0,3.3,1.6,4.8,4.2,4.9c2.8,0.1,4.3-1.5,4.3-4.9c0-5.4,0-10.7,0-16.1c0-5.1,0-11.1,0.1-16.3c0-0.6,0.2-1,0.8-1.1
		c0.8,0,0.8,0.8,0.8,1c0,0.9,0,1.2,0,2.1c0,10.2,0,20.5,0,30.7c0,1.9,0.6,3.7,2.4,4.2c1.4,0.4,3.4,0.3,4.4-0.5
		c1-0.8,1.7-2.7,1.7-4.2c0.1-18.8,0.1-37.6,0.1-56.4c0-0.3,0-0.5,0-0.9c0-0.5-0.1-1.4,0.8-1.4c0.8,0,0.8,0.8,0.8,1.3
		c0,1,0,1.7,0,2.5C182.1,148.6,182.1,154.4,182.1,160.3z"/>
	<path class="st2" d="M177.8,115.6c0-3.8-3-6.9-6.8-6.9c-3.8,0-6.9,3.1-6.9,6.8c0,3.7,3,6.7,6.7,6.7
		C174.8,122.4,177.8,119.5,177.8,115.6z"/>
</g>
<g>
	<path class="st2" d="M259.7,135.5c0-4.6-2.4-10.1-7-10.1c-7,0-13.9,0-20.9,0c-5,0-7.6,2.6-7.7,7.6c0,7,0,13.9,0,20.9
		c0,2.4-0.1,4.9,0,7.3c0.1,2,1.5,3.3,3.4,3.3c1.9,0,3.2-1.3,3.4-3.3c0.1-0.6,0-1.2,0-1.8c0-6.3,0-12.5,0-18.8c0-0.5,0-1.7,0.8-1.7
		c0.9,0,0.9,1.1,0.9,1.7c0,0.4,0,0.9,0,1.4c0,18.6,0,37.2,0,55.8c0,3.3,1.6,4.8,4.2,4.9c2.8,0.1,4.3-1.5,4.3-4.9
		c0-5.4,0-10.7,0-16.1c0-5.1,0-11.1,0.1-16.3c0-0.6,0.2-1,0.8-1.1c0.8,0,0.8,0.8,0.8,1c0,0.9,0,1.2,0,2.1c0,10.2,0,20.5,0,30.7
		c0,1.9,0.6,3.7,2.4,4.2c1.4,0.4,3.4,0.3,4.4-0.5c1-0.8,1.7-2.7,1.7-4.2c0.1-18.8,0.1-37.6,0.1-56.4c0-0.3,0-0.5,0-0.9
		c0-0.5-0.1-3,0.8-3C253.2,137.5,259.7,144.8,259.7,135.5z"/>
	<path class="st2" d="M248.9,115.6c0-3.8-3-6.9-6.8-6.9c-3.8,0-6.9,3.1-6.9,6.8c0,3.7,3,6.7,6.7,6.7
		C245.9,122.4,248.9,119.5,248.9,115.6z"/>
</g>
<path class="st2" d="M265.3,159.4l-0.1,0c-1.8,0.7-3.8-0.2-4.5-2l-7.9-20.8c-0.7-1.8,0.2-3.8,2-4.5l0.1,0c1.8-0.7,3.3-2.1,4-0.3
	l8.5,23.1C268,156.6,267.1,158.7,265.3,159.4z"/>
<rect x="47.7" y="148.4" transform="matrix(0.9526 0.3044 -0.3044 0.9526 51.2443 -9.4708)" class="st0" width="16.7" height="22.6"/>
<rect x="139.5" y="150.8" transform="matrix(0.9257 -0.3782 0.3782 0.9257 -50.3022 67.9443)" class="st0" width="16.7" height="22.6"/>
<g>
	<path class="st2" d="M89.6,160.3c0,2.8,1.2,4.2,3.4,4.3c2.2,0,3.4-1.4,3.4-4.2c0-9.3,0-18.5,0-27.8c0-4.6-2.7-7.2-7.3-7.2
		c-7,0-13.9,0-20.9,0c-5,0-7.6,2.6-7.7,7.6c0,7,0,13.9,0,20.9c0,2.4-0.1,4.9,0,7.3c0.1,2,1.5,3.3,3.4,3.3c1.9,0,3.2-1.3,3.4-3.3
		c0.1-0.6,0-1.2,0-1.8c0-6.3,0-12.5,0-18.8c0-0.5,0-1.7,0.8-1.7c0.9,0,0.9,1.1,0.9,1.7c0,0.4,0,0.9,0,1.4c0,18.6,0,37.2,0,55.8
		c0,3.3,1.6,4.8,4.2,4.9c2.8,0.1,4.3-1.5,4.3-4.9c0-5.4,0-10.7,0-16.1c0-5.1,0-11.1,0.1-16.3c0-0.6,0.2-1,0.8-1.1
		c0.8,0,0.8,0.8,0.8,1c0,0.9,0,1.2,0,2.1c0,10.2,0,20.5,0,30.7c0,1.9,0.6,3.7,2.4,4.2c1.4,0.4,3.4,0.3,4.4-0.5
		c1-0.8,1.7-2.7,1.7-4.2c0.1-18.8,0.1-37.6,0.1-56.4c0-0.3,0-0.5,0-0.9c0-0.5-0.1-1.4,0.8-1.4c0.8,0,0.8,0.8,0.8,1.3
		c0,1,0,1.7,0,2.5C89.6,148.6,89.6,154.4,89.6,160.3z"/>
	<path class="st2" d="M85.4,115.6c0-3.8-3-6.9-6.8-6.9c-3.8,0-6.9,3.1-6.9,6.8c0,3.7,3,6.7,6.7,6.7
		C82.3,122.4,85.4,119.5,85.4,115.6z"/>
</g>
<g>
	<path class="st2" d="M135.9,160.3c0,2.8,1.2,4.2,3.4,4.3c2.2,0,3.4-1.4,3.4-4.2c0-9.3,0-18.5,0-27.8c0-4.6-2.7-7.2-7.3-7.2
		c-7,0-13.9,0-20.9,0c-5,0-7.6,2.6-7.7,7.6c0,7,0,13.9,0,20.9c0,2.4-0.1,4.9,0,7.3c0.1,2,1.5,3.3,3.4,3.3c1.9,0,3.2-1.3,3.4-3.3
		c0.1-0.6,0-1.2,0-1.8c0-6.3,0-12.5,0-18.8c0-0.5,0-1.7,0.8-1.7c0.9,0,0.9,1.1,0.9,1.7c0,0.4,0,0.9,0,1.4c0,18.6,0,37.2,0,55.8
		c0,3.3,1.6,4.8,4.2,4.9c2.8,0.1,4.3-1.5,4.3-4.9c0-5.4,0-10.7,0-16.1c0-5.1,0-11.1,0.1-16.3c0-0.6,0.2-1,0.8-1.1
		c0.8,0,0.8,0.8,0.8,1c0,0.9,0,1.2,0,2.1c0,10.2,0,20.5,0,30.7c0,1.9,0.6,3.7,2.4,4.2c1.4,0.4,3.4,0.3,4.4-0.5
		c1-0.8,1.7-2.7,1.7-4.2c0.1-18.8,0.1-37.6,0.1-56.4c0-0.3,0-0.5,0-0.9c0-0.5-0.1-1.4,0.8-1.4c0.8,0,0.8,0.8,0.8,1.3
		c0,1,0,1.7,0,2.5C135.9,148.6,135.8,154.4,135.9,160.3z"/>
	<path class="st2" d="M131.6,115.6c0-3.8-3-6.9-6.8-6.9c-3.8,0-6.9,3.1-6.9,6.8c0,3.7,3,6.7,6.7,6.7
		C128.6,122.4,131.6,119.5,131.6,115.6z"/>
</g>
</svg>
